<svg xmlns="http://www.w3.org/2000/svg" xmlns:xlink="http://www.w3.org/1999/xlink" width="41" zoomAndPan="magnify" viewBox="0 0 30.75 30.750001" height="41" preserveAspectRatio="xMidYMid meet" version="1.0"><defs><clipPath id="1d28588966"><path d="M 1.941406 0 L 28.722656 0 L 28.722656 30.503906 L 1.941406 30.503906 Z M 1.941406 0 " clip-rule="nonzero"/></clipPath></defs><g clip-path="url(#1d28588966)"><path fill="#1b73ba" d="M 4.183594 27.300781 L 1.941406 0.0585938 L 28.722656 0.113281 L 26.351562 27.300781 L 15.433594 30.441406 Z M 4.183594 27.300781 " fill-opacity="1" fill-rule="nonzero"/></g><path fill="#1c88c7" d="M 15.433594 27.8125 L 15.433594 2.652344 L 26.460938 2.691406 L 24.496094 25.199219 Z M 15.433594 27.8125 " fill-opacity="1" fill-rule="nonzero"/><path fill="#ffffff" d="M 23.722656 5.871094 L 6.757812 5.871094 L 7.214844 9.15625 L 15.269531 9.15625 L 7.34375 12.539062 L 7.804688 15.71875 L 19.476562 15.71875 L 19.054688 20.15625 L 15.101562 20.921875 L 11.519531 20.011719 L 11.242188 17.488281 L 7.953125 17.488281 L 8.394531 22.734375 L 15.453125 24.6875 L 22.214844 22.550781 L 23.082031 12.300781 L 15.929688 12.300781 L 23.722656 9.085938 Z M 23.722656 5.871094 " fill-opacity="1" fill-rule="nonzero"/></svg>