<svg xmlns="http://www.w3.org/2000/svg" xmlns:xlink="http://www.w3.org/1999/xlink" width="41" zoomAndPan="magnify" viewBox="0 0 30.75 30.750001" height="41" preserveAspectRatio="xMidYMid meet" version="1.0"><defs><clipPath id="6c2056c068"><path d="M 3.050781 0 L 19 0 L 19 24 L 3.050781 24 Z M 3.050781 0 " clip-rule="nonzero"/></clipPath><clipPath id="116b2a412a"><path d="M 16 0 L 26.855469 0 L 26.855469 30.503906 L 16 30.503906 Z M 16 0 " clip-rule="nonzero"/></clipPath></defs><g clip-path="url(#6c2056c068)"><path fill="#2ba977" d="M 13.722656 0 L 18.679688 0 L 18.679688 22.796875 C 16.140625 23.277344 14.273438 23.46875 12.25 23.46875 C 6.199219 23.460938 3.050781 20.75 3.050781 15.535156 C 3.050781 10.511719 6.390625 7.253906 11.570312 7.253906 C 12.371094 7.253906 12.984375 7.316406 13.722656 7.507812 Z M 13.898438 11.617188 C 13.316406 11.425781 12.839844 11.363281 12.226562 11.363281 C 9.722656 11.363281 8.273438 12.898438 8.273438 15.585938 C 8.273438 18.203125 9.65625 19.648438 12.195312 19.648438 C 12.742188 19.648438 13.191406 19.621094 13.898438 19.523438 Z M 13.898438 11.617188 " fill-opacity="1" fill-rule="nonzero"/></g><g clip-path="url(#116b2a412a)"><path fill="#2ba977" d="M 26.78125 7.867188 L 26.78125 19.28125 C 26.78125 23.210938 26.488281 25.101562 25.625 26.730469 C 24.824219 28.296875 23.765625 29.285156 21.578125 30.378906 L 16.980469 28.203125 C 19.167969 27.183594 20.226562 26.28125 20.902344 24.90625 C 21.609375 23.496094 21.832031 21.867188 21.832031 17.582031 L 21.832031 7.867188 Z M 21.332031 0 L 26.289062 0 L 26.289062 5.054688 L 21.332031 5.054688 Z M 21.332031 0 " fill-opacity="1" fill-rule="nonzero"/></g></svg>