<svg xmlns="http://www.w3.org/2000/svg" xmlns:xlink="http://www.w3.org/1999/xlink" width="41" zoomAndPan="magnify" viewBox="0 0 30.75 30.750001" height="41" preserveAspectRatio="xMidYMid meet" version="1.0"><defs><clipPath id="20ae751827"><path d="M 0 0 L 30.503906 0 L 30.503906 29.757812 L 0 29.757812 Z M 0 0 " clip-rule="nonzero"/></clipPath></defs><g clip-path="url(#20ae751827)"><path fill="#ffffff" d="M 15.207031 0 C 6.796875 0 0.00390625 6.820312 0.00390625 15.257812 C 0.00390625 22 4.355469 27.707031 10.398438 29.730469 C 11.152344 29.882812 11.429688 29.402344 11.429688 28.996094 C 11.429688 28.644531 11.40625 27.429688 11.40625 26.167969 C 7.175781 27.078125 6.296875 24.347656 6.296875 24.347656 C 5.617188 22.582031 4.609375 22.125 4.609375 22.125 C 3.222656 21.191406 4.710938 21.191406 4.710938 21.191406 C 6.246094 21.292969 7.050781 22.757812 7.050781 22.757812 C 8.410156 25.082031 10.597656 24.425781 11.480469 24.019531 C 11.605469 23.035156 12.007812 22.355469 12.4375 21.976562 C 9.0625 21.621094 5.515625 20.308594 5.515625 14.449219 C 5.515625 12.78125 6.117188 11.417969 7.074219 10.355469 C 6.925781 9.976562 6.394531 8.410156 7.226562 6.316406 C 7.226562 6.316406 8.511719 5.910156 11.40625 7.878906 C 12.648438 7.546875 13.917969 7.375 15.207031 7.375 C 16.488281 7.375 17.796875 7.550781 19.007812 7.878906 C 21.902344 5.910156 23.183594 6.316406 23.183594 6.316406 C 24.015625 8.410156 23.488281 9.976562 23.335938 10.355469 C 24.316406 11.417969 24.894531 12.78125 24.894531 14.449219 C 24.894531 20.308594 21.347656 21.597656 17.949219 21.976562 C 18.503906 22.453125 18.980469 23.363281 18.980469 24.804688 C 18.980469 26.851562 18.957031 28.492188 18.957031 28.996094 C 18.957031 29.402344 19.234375 29.882812 19.988281 29.730469 C 26.027344 27.707031 30.382812 22 30.382812 15.257812 C 30.40625 6.820312 23.585938 0 15.207031 0 Z M 15.207031 0 " fill-opacity="1" fill-rule="evenodd"/></g></svg>