<svg xmlns="http://www.w3.org/2000/svg" xmlns:xlink="http://www.w3.org/1999/xlink" width="41" zoomAndPan="magnify" viewBox="0 0 30.75 30.750001" height="41" preserveAspectRatio="xMidYMid meet" version="1.0"><defs><clipPath id="98fd472c4f"><path d="M 1.941406 0 L 28.722656 0 L 28.722656 30.503906 L 1.941406 30.503906 Z M 1.941406 0 " clip-rule="nonzero"/></clipPath></defs><g clip-path="url(#98fd472c4f)"><path fill="#e34f26" d="M 4.183594 27.300781 L 1.941406 0.0585938 L 28.722656 0.113281 L 26.351562 27.300781 L 15.433594 30.441406 Z M 4.183594 27.300781 " fill-opacity="1" fill-rule="nonzero"/></g><path fill="#ef652a" d="M 15.433594 27.8125 L 15.433594 2.652344 L 26.460938 2.691406 L 24.496094 25.199219 Z M 15.433594 27.8125 " fill-opacity="1" fill-rule="nonzero"/><path fill="#ffffff" d="M 23.429688 8.9375 L 23.742188 5.613281 L 6.777344 5.613281 L 7.710938 15.808594 L 19.421875 15.808594 L 18.960938 20.15625 L 15.214844 21.160156 L 11.40625 20.066406 L 11.207031 17.472656 L 7.839844 17.472656 L 8.300781 22.769531 L 15.210938 24.6875 L 22.179688 22.769531 L 23.117188 12.429688 L 10.820312 12.429688 L 10.46875 8.9375 Z M 23.429688 8.9375 " fill-opacity="1" fill-rule="nonzero"/></svg>