<svg xmlns="http://www.w3.org/2000/svg" xmlns:xlink="http://www.w3.org/1999/xlink" width="41" zoomAndPan="magnify" viewBox="0 0 30.75 30.750001" height="41" preserveAspectRatio="xMidYMid meet" version="1.0"><defs><clipPath id="c0d1351a72"><path d="M 1.941406 0 L 28.722656 0 L 28.722656 30.503906 L 1.941406 30.503906 Z M 1.941406 0 " clip-rule="nonzero"/></clipPath></defs><g clip-path="url(#c0d1351a72)"><path fill="#e9ca32" d="M 4.183594 27.300781 L 1.941406 0.0585938 L 28.722656 0.113281 L 26.351562 27.300781 L 15.433594 30.441406 Z M 4.183594 27.300781 " fill-opacity="1" fill-rule="nonzero"/></g><path fill="#ffde25" d="M 15.433594 27.8125 L 15.433594 2.652344 L 26.460938 2.691406 L 24.496094 25.199219 Z M 15.433594 27.8125 " fill-opacity="1" fill-rule="nonzero"/><path fill="#ffffff" d="M 14.253906 5.640625 L 11.335938 5.640625 L 11.335938 22.386719 L 9.070312 21.957031 L 9.070312 19.703125 L 6.367188 19.273438 L 6.367188 24.316406 L 14.253906 26.355469 Z M 16.441406 5.640625 L 24.511719 5.640625 L 23.972656 8.851562 L 19.519531 8.851562 L 19.519531 14.117188 L 23.972656 14.117188 L 23.429688 24.746094 L 16.441406 26.355469 L 16.441406 23.03125 L 21.164062 21.417969 L 21.4375 17.019531 L 16.441406 17.738281 Z M 16.441406 5.640625 " fill-opacity="1" fill-rule="nonzero"/></svg>