<svg xmlns="http://www.w3.org/2000/svg" xmlns:xlink="http://www.w3.org/1999/xlink" width="41" zoomAndPan="magnify" viewBox="0 0 30.75 30.750001" height="41" preserveAspectRatio="xMidYMid meet" version="1.0"><defs><clipPath id="2cf8554c1c"><path d="M 8.007812 0 L 22 0 L 22 30 L 8.007812 30 Z M 8.007812 0 " clip-rule="nonzero"/></clipPath></defs><g clip-path="url(#2cf8554c1c)"><path fill="#00684a" d="M 17.382812 3.800781 C 16.175781 2.332031 15.136719 0.84375 14.925781 0.535156 C 14.902344 0.511719 14.871094 0.511719 14.847656 0.535156 C 14.636719 0.84375 13.597656 2.332031 12.390625 3.800781 C 2.035156 17.339844 14.023438 26.476562 14.023438 26.476562 L 14.121094 26.546875 C 14.210938 27.957031 14.433594 29.984375 14.433594 29.984375 L 15.328125 29.984375 C 15.328125 29.984375 15.550781 27.96875 15.640625 26.546875 L 15.742188 26.464844 C 15.753906 26.476562 27.738281 17.339844 17.382812 3.800781 Z M 14.882812 26.28125 C 14.882812 26.28125 14.34375 25.8125 14.199219 25.570312 L 14.199219 25.550781 L 14.847656 10.804688 C 14.847656 10.761719 14.914062 10.761719 14.914062 10.804688 L 15.5625 25.550781 L 15.5625 25.570312 C 15.417969 25.8125 14.882812 26.28125 14.882812 26.28125 Z M 14.882812 26.28125 " fill-opacity="1" fill-rule="nonzero"/></g></svg>