<svg xmlns="http://www.w3.org/2000/svg" xmlns:xlink="http://www.w3.org/1999/xlink" width="41" zoomAndPan="magnify" viewBox="0 0 30.75 30.750001" height="41" preserveAspectRatio="xMidYMid meet" version="1.0"><defs><clipPath id="a450e74538"><path d="M 0 0 L 30.503906 0 L 30.503906 30.503906 L 0 30.503906 Z M 0 0 " clip-rule="nonzero"/></clipPath></defs><g clip-path="url(#a450e74538)"><path fill="#00678c" d="M 28.097656 23.757812 C 26.4375 23.714844 25.148438 23.882812 24.070312 24.335938 C 23.761719 24.460938 23.261719 24.460938 23.222656 24.851562 C 23.386719 25.015625 23.40625 25.285156 23.554688 25.511719 C 23.800781 25.925781 24.238281 26.480469 24.632812 26.769531 L 25.960938 27.71875 C 26.769531 28.210938 27.679688 28.5 28.46875 28.996094 C 28.925781 29.285156 29.382812 29.65625 29.839844 29.964844 C 30.070312 30.128906 30.210938 30.398438 30.503906 30.5 L 30.503906 30.4375 C 30.355469 30.253906 30.316406 29.984375 30.171875 29.777344 L 29.546875 29.183594 C 28.945312 28.378906 28.199219 27.675781 27.390625 27.101562 C 26.726562 26.644531 25.273438 26.027344 25.003906 25.265625 L 24.964844 25.21875 C 25.417969 25.171875 25.960938 25.011719 26.394531 24.890625 C 27.101562 24.703125 27.742188 24.746094 28.46875 24.558594 L 29.464844 24.269531 L 29.464844 24.085938 C 29.09375 23.714844 28.820312 23.21875 28.429688 22.871094 C 27.371094 21.960938 26.207031 21.074219 25.003906 20.332031 C 24.363281 19.921875 23.53125 19.652344 22.847656 19.304688 C 22.597656 19.179688 22.183594 19.117188 22.039062 18.910156 C 21.664062 18.457031 21.457031 17.859375 21.1875 17.324219 L 19.488281 13.738281 C 19.113281 12.933594 18.886719 12.128906 18.429688 11.386719 C 16.292969 7.882812 13.96875 5.757812 10.398438 3.675781 C 9.632812 3.242188 8.71875 3.058594 7.75 2.832031 L 6.195312 2.746094 C 5.863281 2.601562 5.53125 2.210938 5.238281 2.027344 C 4.058594 1.285156 1.007812 -0.324219 0.136719 1.792969 C -0.425781 3.132812 0.964844 4.453125 1.4375 5.132812 C 1.792969 5.609375 2.246094 6.144531 2.496094 6.679688 C 2.636719 7.03125 2.683594 7.402344 2.828125 7.773438 C 3.160156 8.679688 3.472656 9.691406 3.90625 10.535156 C 4.140625 10.96875 4.382812 11.421875 4.675781 11.816406 C 4.839844 12.046875 5.128906 12.144531 5.191406 12.515625 C 4.902344 12.929688 4.882812 13.546875 4.714844 14.0625 C 3.96875 16.390625 4.257812 19.277344 5.316406 20.992188 C 5.648438 21.507812 6.433594 22.644531 7.496094 22.210938 C 8.429688 21.839844 8.222656 20.664062 8.492188 19.632812 C 8.554688 19.386719 8.511719 19.21875 8.636719 19.054688 L 8.636719 19.101562 L 9.488281 20.8125 C 10.128906 21.824219 11.25 22.875 12.183594 23.574219 C 12.679688 23.945312 13.074219 24.585938 13.699219 24.8125 L 13.699219 24.75 L 13.65625 24.75 C 13.53125 24.566406 13.34375 24.480469 13.179688 24.339844 C 12.804688 23.96875 12.390625 23.511719 12.101562 23.101562 C 11.230469 21.945312 10.460938 20.667969 9.777344 19.347656 C 9.445312 18.710938 9.152344 18.007812 8.886719 17.371094 C 8.761719 17.121094 8.761719 16.75 8.554688 16.628906 C 8.242188 17.082031 7.785156 17.472656 7.558594 18.03125 C 7.164062 18.917969 7.121094 20.007812 6.976562 21.144531 C 6.894531 21.164062 6.929688 21.144531 6.894531 21.1875 C 6.230469 21.023438 6 20.34375 5.753906 19.765625 C 5.128906 18.304688 5.027344 15.953125 5.566406 14.261719 C 5.710938 13.828125 6.332031 12.46875 6.085938 12.054688 C 5.960938 11.664062 5.546875 11.4375 5.316406 11.128906 C 5.046875 10.738281 4.757812 10.242188 4.570312 9.808594 C 4.074219 8.652344 3.824219 7.375 3.285156 6.222656 C 3.035156 5.6875 2.597656 5.128906 2.246094 4.632812 C 1.851562 4.078125 1.417969 3.6875 1.105469 3.027344 C 1.003906 2.796875 0.855469 2.429688 1.023438 2.179688 C 1.0625 2.015625 1.148438 1.949219 1.3125 1.914062 C 1.582031 1.683594 2.351562 1.976562 2.621094 2.097656 C 3.386719 2.40625 4.03125 2.695312 4.671875 3.128906 C 4.964844 3.335938 5.277344 3.726562 5.648438 3.828125 L 6.085938 3.828125 C 6.75 3.972656 7.496094 3.875 8.117188 4.058594 C 9.214844 4.410156 10.210938 4.925781 11.105469 5.484375 C 13.820312 7.195312 16.0625 9.628906 17.578125 12.535156 C 17.824219 13.007812 17.929688 13.441406 18.15625 13.9375 C 18.59375 14.949219 19.132812 15.976562 19.566406 16.96875 C 20.003906 17.9375 20.417969 18.925781 21.042969 19.730469 C 21.351562 20.164062 22.597656 20.390625 23.15625 20.617188 C 23.570312 20.800781 24.214844 20.96875 24.589844 21.195312 C 25.292969 21.628906 26 22.121094 26.664062 22.597656 C 26.992188 22.84375 28.03125 23.359375 28.09375 23.769531 Z M 6.941406 5.84375 C 6.652344 5.839844 6.371094 5.875 6.089844 5.945312 L 6.089844 5.992188 L 6.132812 5.992188 C 6.296875 6.324219 6.589844 6.550781 6.796875 6.839844 L 7.273438 7.828125 L 7.3125 7.78125 C 7.605469 7.578125 7.75 7.246094 7.75 6.753906 C 7.625 6.609375 7.605469 6.464844 7.5 6.320312 C 7.375 6.113281 7.105469 6.007812 6.941406 5.84375 Z M 6.941406 5.84375 " fill-opacity="1" fill-rule="evenodd"/></g></svg>