<svg xmlns="http://www.w3.org/2000/svg" xmlns:xlink="http://www.w3.org/1999/xlink" width="41" zoomAndPan="magnify" viewBox="0 0 30.75 30.750001" height="41" preserveAspectRatio="xMidYMid meet" version="1.0"><defs><clipPath id="3e120e2428"><path d="M 1.523438 0 L 29 0 L 29 30.503906 L 1.523438 30.503906 Z M 1.523438 0 " clip-rule="nonzero"/></clipPath></defs><g clip-path="url(#3e120e2428)"><path fill="#5fa04e" d="M 15.003906 30.316406 C 14.585938 30.316406 14.199219 30.203125 13.835938 30.007812 L 10.144531 27.816406 C 9.589844 27.511719 9.867188 27.402344 10.035156 27.347656 C 10.785156 27.097656 10.921875 27.039062 11.699219 26.597656 C 11.78125 26.542969 11.894531 26.570312 11.976562 26.625 L 14.808594 28.316406 C 14.921875 28.371094 15.058594 28.371094 15.140625 28.316406 L 26.222656 21.910156 C 26.332031 21.851562 26.386719 21.742188 26.386719 21.601562 L 26.386719 8.8125 C 26.386719 8.675781 26.332031 8.5625 26.222656 8.507812 L 15.140625 2.128906 C 15.03125 2.070312 14.894531 2.070312 14.808594 2.128906 L 3.730469 8.507812 C 3.621094 8.5625 3.5625 8.703125 3.5625 8.8125 L 3.5625 21.601562 C 3.5625 21.714844 3.621094 21.851562 3.730469 21.910156 L 6.757812 23.65625 C 8.394531 24.488281 9.421875 23.515625 9.421875 22.546875 L 9.421875 9.921875 C 9.421875 9.757812 9.5625 9.589844 9.757812 9.589844 L 11.171875 9.589844 C 11.339844 9.589844 11.503906 9.730469 11.503906 9.921875 L 11.503906 22.546875 C 11.503906 24.738281 10.3125 26.015625 8.230469 26.015625 C 7.589844 26.015625 7.089844 26.015625 5.675781 25.320312 L 2.757812 23.65625 C 2.039062 23.238281 1.59375 22.464844 1.59375 21.632812 L 1.59375 8.839844 C 1.59375 8.007812 2.039062 7.230469 2.757812 6.816406 L 13.835938 0.40625 C 14.53125 0.0195312 15.476562 0.0195312 16.167969 0.40625 L 27.25 6.816406 C 27.96875 7.230469 28.414062 8.007812 28.414062 8.839844 L 28.414062 21.632812 C 28.414062 22.464844 27.96875 23.238281 27.25 23.65625 L 16.167969 30.066406 C 15.835938 30.203125 15.421875 30.316406 15.003906 30.316406 Z M 15.003906 30.316406 " fill-opacity="1" fill-rule="nonzero"/></g><path fill="#5fa04e" d="M 18.460938 21.5625 C 13.625 21.5625 12.632812 19.328125 12.632812 17.425781 C 12.632812 17.257812 12.769531 17.089844 12.960938 17.089844 L 14.398438 17.089844 C 14.566406 17.089844 14.703125 17.203125 14.703125 17.371094 C 14.925781 18.851562 15.558594 19.578125 18.488281 19.578125 C 20.808594 19.578125 21.804688 19.046875 21.804688 17.789062 C 21.804688 17.0625 21.527344 16.53125 17.910156 16.167969 C 14.898438 15.863281 13.019531 15.191406 13.019531 12.761719 C 13.019531 10.496094 14.898438 9.15625 18.046875 9.15625 C 21.585938 9.15625 23.324219 10.386719 23.546875 13.066406 C 23.546875 13.152344 23.519531 13.234375 23.464844 13.320312 C 23.40625 13.375 23.324219 13.429688 23.242188 13.429688 L 21.777344 13.429688 C 21.640625 13.429688 21.5 13.320312 21.472656 13.179688 C 21.140625 11.644531 20.285156 11.140625 18.019531 11.140625 C 15.476562 11.140625 15.171875 12.035156 15.171875 12.703125 C 15.171875 13.515625 15.53125 13.765625 18.957031 14.214844 C 22.355469 14.660156 23.960938 15.304688 23.960938 17.707031 C 23.960938 20.164062 21.941406 21.5625 18.460938 21.5625 Z M 18.460938 21.5625 " fill-opacity="1" fill-rule="nonzero"/></svg>