<svg xmlns="http://www.w3.org/2000/svg" xmlns:xlink="http://www.w3.org/1999/xlink" width="41" zoomAndPan="magnify" viewBox="0 0 30.75 30.750001" height="41" preserveAspectRatio="xMidYMid meet" version="1.0"><defs><clipPath id="e8f7e73fee"><path d="M 0 0 L 23 0 L 23 23 L 0 23 Z M 0 0 " clip-rule="nonzero"/></clipPath><clipPath id="7dd70b52a3"><path d="M 15.09375 0.0078125 C 7.382812 0.0078125 7.863281 3.371094 7.863281 3.371094 L 7.875 6.855469 L 15.230469 6.855469 L 15.230469 7.902344 L 4.953125 7.902344 C 4.953125 7.902344 0.015625 7.339844 0.015625 15.164062 C 0.015625 22.988281 4.324219 22.710938 4.324219 22.710938 L 6.894531 22.710938 L 6.894531 19.078125 C 6.894531 19.078125 6.753906 14.75 11.132812 14.75 L 18.429688 14.75 C 18.429688 14.75 22.53125 14.816406 22.53125 10.761719 L 22.53125 4.0625 C 22.53125 4.0625 23.152344 0.0078125 15.09375 0.0078125 Z M 11.039062 2.351562 C 11.210938 2.351562 11.382812 2.386719 11.542969 2.453125 C 11.707031 2.519531 11.847656 2.617188 11.972656 2.742188 C 12.097656 2.867188 12.191406 3.011719 12.261719 3.171875 C 12.328125 3.335938 12.359375 3.507812 12.359375 3.683594 C 12.359375 3.859375 12.328125 4.03125 12.261719 4.191406 C 12.191406 4.355469 12.097656 4.5 11.972656 4.625 C 11.847656 4.75 11.707031 4.847656 11.542969 4.914062 C 11.382812 4.980469 11.210938 5.015625 11.039062 5.015625 C 10.863281 5.015625 10.691406 4.980469 10.53125 4.914062 C 10.367188 4.847656 10.226562 4.75 10.101562 4.625 C 9.976562 4.5 9.882812 4.355469 9.8125 4.191406 C 9.746094 4.03125 9.714844 3.859375 9.714844 3.683594 C 9.714844 3.507812 9.746094 3.335938 9.8125 3.171875 C 9.882812 3.011719 9.976562 2.867188 10.101562 2.742188 C 10.226562 2.617188 10.367188 2.519531 10.53125 2.453125 C 10.691406 2.386719 10.863281 2.351562 11.039062 2.351562 Z M 11.039062 2.351562 " clip-rule="nonzero"/></clipPath><linearGradient x1="0.00409652" gradientTransform="matrix(22.52367, 0, 0, 22.70369, 0.0172451, 0.00861447)" y1="-0.00412858" x2="1.027747" gradientUnits="userSpaceOnUse" y2="1.01157" id="f2d2940657"><stop stop-opacity="1" stop-color="rgb(21.998596%, 49.398804%, 72.198486%)" offset="0"/><stop stop-opacity="1" stop-color="rgb(21.99707%, 49.383545%, 72.172546%)" offset="0.125"/><stop stop-opacity="1" stop-color="rgb(21.986389%, 49.27063%, 71.975708%)" offset="0.140625"/><stop stop-opacity="1" stop-color="rgb(21.966553%, 49.073792%, 71.635437%)" offset="0.15625"/><stop stop-opacity="1" stop-color="rgb(21.948242%, 48.876953%, 71.295166%)" offset="0.171875"/><stop stop-opacity="1" stop-color="rgb(21.928406%, 48.680115%, 70.953369%)" offset="0.1875"/><stop stop-opacity="1" stop-color="rgb(21.910095%, 48.483276%, 70.613098%)" offset="0.203125"/><stop stop-opacity="1" stop-color="rgb(21.890259%, 48.286438%, 70.272827%)" offset="0.21875"/><stop stop-opacity="1" stop-color="rgb(21.870422%, 48.0896%, 69.932556%)" offset="0.234375"/><stop stop-opacity="1" stop-color="rgb(21.852112%, 47.892761%, 69.592285%)" offset="0.25"/><stop stop-opacity="1" stop-color="rgb(21.832275%, 47.695923%, 69.250488%)" offset="0.265625"/><stop stop-opacity="1" stop-color="rgb(21.813965%, 47.499084%, 68.910217%)" offset="0.28125"/><stop stop-opacity="1" stop-color="rgb(21.794128%, 47.302246%, 68.569946%)" offset="0.296875"/><stop stop-opacity="1" stop-color="rgb(21.775818%, 47.106934%, 68.229675%)" offset="0.3125"/><stop stop-opacity="1" stop-color="rgb(21.755981%, 46.910095%, 67.887878%)" offset="0.328125"/><stop stop-opacity="1" stop-color="rgb(21.736145%, 46.713257%, 67.547607%)" offset="0.34375"/><stop stop-opacity="1" stop-color="rgb(21.717834%, 46.516418%, 67.207336%)" offset="0.359375"/><stop stop-opacity="1" stop-color="rgb(21.697998%, 46.31958%, 66.867065%)" offset="0.375"/><stop stop-opacity="1" stop-color="rgb(21.679688%, 46.122742%, 66.526794%)" offset="0.390625"/><stop stop-opacity="1" stop-color="rgb(21.659851%, 45.925903%, 66.184998%)" offset="0.40625"/><stop stop-opacity="1" stop-color="rgb(21.641541%, 45.729065%, 65.844727%)" offset="0.421875"/><stop stop-opacity="1" stop-color="rgb(21.621704%, 45.532227%, 65.504456%)" offset="0.4375"/><stop stop-opacity="1" stop-color="rgb(21.601868%, 45.335388%, 65.164185%)" offset="0.453125"/><stop stop-opacity="1" stop-color="rgb(21.583557%, 45.140076%, 64.822388%)" offset="0.46875"/><stop stop-opacity="1" stop-color="rgb(21.563721%, 44.943237%, 64.482117%)" offset="0.484375"/><stop stop-opacity="1" stop-color="rgb(21.54541%, 44.746399%, 64.141846%)" offset="0.494377"/><stop stop-opacity="1" stop-color="rgb(21.536255%, 44.648743%, 63.972473%)" offset="0.5"/><stop stop-opacity="1" stop-color="rgb(21.525574%, 44.549561%, 63.801575%)" offset="0.505623"/><stop stop-opacity="1" stop-color="rgb(21.516418%, 44.451904%, 63.630676%)" offset="0.515625"/><stop stop-opacity="1" stop-color="rgb(21.507263%, 44.352722%, 63.459778%)" offset="0.53125"/><stop stop-opacity="1" stop-color="rgb(21.487427%, 44.155884%, 63.119507%)" offset="0.546875"/><stop stop-opacity="1" stop-color="rgb(21.46759%, 43.959045%, 62.779236%)" offset="0.5625"/><stop stop-opacity="1" stop-color="rgb(21.44928%, 43.762207%, 62.438965%)" offset="0.578125"/><stop stop-opacity="1" stop-color="rgb(21.429443%, 43.565369%, 62.098694%)" offset="0.59375"/><stop stop-opacity="1" stop-color="rgb(21.411133%, 43.36853%, 61.756897%)" offset="0.609375"/><stop stop-opacity="1" stop-color="rgb(21.391296%, 43.171692%, 61.416626%)" offset="0.625"/><stop stop-opacity="1" stop-color="rgb(21.37146%, 42.976379%, 61.076355%)" offset="0.640625"/><stop stop-opacity="1" stop-color="rgb(21.353149%, 42.779541%, 60.736084%)" offset="0.65625"/><stop stop-opacity="1" stop-color="rgb(21.333313%, 42.582703%, 60.394287%)" offset="0.671875"/><stop stop-opacity="1" stop-color="rgb(21.315002%, 42.385864%, 60.054016%)" offset="0.6875"/><stop stop-opacity="1" stop-color="rgb(21.295166%, 42.189026%, 59.713745%)" offset="0.703125"/><stop stop-opacity="1" stop-color="rgb(21.276855%, 41.992188%, 59.373474%)" offset="0.71875"/><stop stop-opacity="1" stop-color="rgb(21.257019%, 41.795349%, 59.033203%)" offset="0.734375"/><stop stop-opacity="1" stop-color="rgb(21.237183%, 41.598511%, 58.691406%)" offset="0.75"/><stop stop-opacity="1" stop-color="rgb(21.218872%, 41.401672%, 58.351135%)" offset="0.765625"/><stop stop-opacity="1" stop-color="rgb(21.203613%, 41.25061%, 58.09021%)" offset="0.78125"/><stop stop-opacity="1" stop-color="rgb(21.199036%, 41.19873%, 57.998657%)" offset="0.8125"/><stop stop-opacity="1" stop-color="rgb(21.199036%, 41.19873%, 57.998657%)" offset="0.875"/><stop stop-opacity="1" stop-color="rgb(21.199036%, 41.19873%, 57.998657%)" offset="1"/></linearGradient><clipPath id="d92aa9f4e8"><path d="M 7 7 L 30.503906 7 L 30.503906 30.503906 L 7 30.503906 Z M 7 7 " clip-rule="nonzero"/></clipPath><clipPath id="c3cab559f4"><path d="M 15.3125 30.398438 C 23.023438 30.398438 22.542969 27.035156 22.542969 27.035156 L 22.535156 23.550781 L 15.175781 23.550781 L 15.175781 22.503906 L 25.457031 22.503906 C 25.457031 22.503906 30.390625 23.066406 30.390625 15.242188 C 30.390625 7.417969 26.082031 7.695312 26.082031 7.695312 L 23.515625 7.695312 L 23.515625 11.324219 C 23.515625 11.324219 23.652344 15.65625 19.277344 15.65625 L 11.976562 15.65625 C 11.976562 15.65625 7.878906 15.589844 7.878906 19.644531 L 7.878906 26.34375 C 7.878906 26.34375 7.253906 30.398438 15.3125 30.398438 Z M 19.371094 28.054688 C 19.195312 28.054688 19.027344 28.019531 18.863281 27.953125 C 18.703125 27.886719 18.558594 27.789062 18.433594 27.664062 C 18.308594 27.539062 18.214844 27.394531 18.148438 27.234375 C 18.082031 27.070312 18.046875 26.898438 18.046875 26.722656 C 18.046875 26.546875 18.082031 26.375 18.148438 26.214844 C 18.214844 26.050781 18.308594 25.90625 18.433594 25.78125 C 18.558594 25.65625 18.703125 25.558594 18.863281 25.492188 C 19.027344 25.425781 19.195312 25.390625 19.371094 25.390625 C 19.546875 25.390625 19.714844 25.425781 19.878906 25.492188 C 20.039062 25.558594 20.183594 25.65625 20.308594 25.78125 C 20.429688 25.90625 20.527344 26.050781 20.59375 26.214844 C 20.660156 26.375 20.695312 26.546875 20.695312 26.722656 C 20.695312 26.898438 20.660156 27.070312 20.59375 27.234375 C 20.527344 27.394531 20.429688 27.539062 20.308594 27.664062 C 20.183594 27.789062 20.039062 27.886719 19.878906 27.953125 C 19.714844 28.019531 19.546875 28.054688 19.371094 28.054688 Z M 19.371094 28.054688 " clip-rule="nonzero"/></clipPath><linearGradient x1="-0.0326455" gradientTransform="matrix(22.523666, 0, 0, 22.703688, 7.866663, 7.693787)" y1="-0.00636613" x2="1.013978" gradientUnits="userSpaceOnUse" y2="0.985247" id="5e7a39782b"><stop stop-opacity="1" stop-color="rgb(100%, 87.799072%, 32.199097%)" offset="0"/><stop stop-opacity="1" stop-color="rgb(100%, 87.799072%, 32.199097%)" offset="0.125"/><stop stop-opacity="1" stop-color="rgb(100%, 87.799072%, 32.199097%)" offset="0.1875"/><stop stop-opacity="1" stop-color="rgb(100%, 87.759399%, 32.15332%)" offset="0.21875"/><stop stop-opacity="1" stop-color="rgb(100%, 87.590027%, 31.959534%)" offset="0.234375"/><stop stop-opacity="1" stop-color="rgb(100%, 87.332153%, 31.661987%)" offset="0.25"/><stop stop-opacity="1" stop-color="rgb(100%, 87.07428%, 31.365967%)" offset="0.265625"/><stop stop-opacity="1" stop-color="rgb(100%, 86.816406%, 31.06842%)" offset="0.28125"/><stop stop-opacity="1" stop-color="rgb(100%, 86.558533%, 30.7724%)" offset="0.296875"/><stop stop-opacity="1" stop-color="rgb(100%, 86.300659%, 30.474854%)" offset="0.3125"/><stop stop-opacity="1" stop-color="rgb(100%, 86.04126%, 30.177307%)" offset="0.328125"/><stop stop-opacity="1" stop-color="rgb(100%, 85.783386%, 29.881287%)" offset="0.34375"/><stop stop-opacity="1" stop-color="rgb(100%, 85.525513%, 29.58374%)" offset="0.359375"/><stop stop-opacity="1" stop-color="rgb(100%, 85.267639%, 29.28772%)" offset="0.375"/><stop stop-opacity="1" stop-color="rgb(100%, 85.009766%, 28.990173%)" offset="0.390625"/><stop stop-opacity="1" stop-color="rgb(100%, 84.751892%, 28.694153%)" offset="0.40625"/><stop stop-opacity="1" stop-color="rgb(100%, 84.494019%, 28.396606%)" offset="0.421875"/><stop stop-opacity="1" stop-color="rgb(100%, 84.236145%, 28.100586%)" offset="0.4375"/><stop stop-opacity="1" stop-color="rgb(100%, 83.978271%, 27.80304%)" offset="0.453125"/><stop stop-opacity="1" stop-color="rgb(100%, 83.720398%, 27.505493%)" offset="0.46875"/><stop stop-opacity="1" stop-color="rgb(100%, 83.460999%, 27.209473%)" offset="0.482837"/><stop stop-opacity="1" stop-color="rgb(100%, 83.332825%, 27.061462%)" offset="0.484375"/><stop stop-opacity="1" stop-color="rgb(100%, 83.203125%, 26.911926%)" offset="0.5"/><stop stop-opacity="1" stop-color="rgb(100%, 82.945251%, 26.615906%)" offset="0.515625"/><stop stop-opacity="1" stop-color="rgb(100%, 82.687378%, 26.318359%)" offset="0.517163"/><stop stop-opacity="1" stop-color="rgb(100%, 82.559204%, 26.170349%)" offset="0.53125"/><stop stop-opacity="1" stop-color="rgb(100%, 82.429504%, 26.022339%)" offset="0.546875"/><stop stop-opacity="1" stop-color="rgb(100%, 82.171631%, 25.724792%)" offset="0.5625"/><stop stop-opacity="1" stop-color="rgb(100%, 81.913757%, 25.428772%)" offset="0.578125"/><stop stop-opacity="1" stop-color="rgb(100%, 81.655884%, 25.131226%)" offset="0.59375"/><stop stop-opacity="1" stop-color="rgb(100%, 81.39801%, 24.835205%)" offset="0.609375"/><stop stop-opacity="1" stop-color="rgb(100%, 81.138611%, 24.537659%)" offset="0.625"/><stop stop-opacity="1" stop-color="rgb(100%, 80.880737%, 24.240112%)" offset="0.640625"/><stop stop-opacity="1" stop-color="rgb(100%, 80.622864%, 23.944092%)" offset="0.65625"/><stop stop-opacity="1" stop-color="rgb(100%, 80.36499%, 23.646545%)" offset="0.671875"/><stop stop-opacity="1" stop-color="rgb(100%, 80.107117%, 23.350525%)" offset="0.6875"/><stop stop-opacity="1" stop-color="rgb(100%, 79.849243%, 23.052979%)" offset="0.703125"/><stop stop-opacity="1" stop-color="rgb(100%, 79.59137%, 22.756958%)" offset="0.71875"/><stop stop-opacity="1" stop-color="rgb(100%, 79.333496%, 22.459412%)" offset="0.734375"/><stop stop-opacity="1" stop-color="rgb(100%, 79.075623%, 22.163391%)" offset="0.75"/><stop stop-opacity="1" stop-color="rgb(100%, 78.816223%, 21.865845%)" offset="0.765625"/><stop stop-opacity="1" stop-color="rgb(100%, 78.55835%, 21.568298%)" offset="0.78125"/><stop stop-opacity="1" stop-color="rgb(100%, 78.300476%, 21.272278%)" offset="0.796875"/><stop stop-opacity="1" stop-color="rgb(100%, 78.042603%, 20.974731%)" offset="0.8125"/><stop stop-opacity="1" stop-color="rgb(100%, 77.784729%, 20.678711%)" offset="0.828125"/><stop stop-opacity="1" stop-color="rgb(100%, 77.526855%, 20.381165%)" offset="0.84375"/><stop stop-opacity="1" stop-color="rgb(100%, 77.268982%, 20.085144%)" offset="0.859375"/><stop stop-opacity="1" stop-color="rgb(100%, 77.011108%, 19.787598%)" offset="0.875"/><stop stop-opacity="1" stop-color="rgb(100%, 76.753235%, 19.491577%)" offset="0.890625"/><stop stop-opacity="1" stop-color="rgb(100%, 76.560974%, 19.270325%)" offset="0.90625"/><stop stop-opacity="1" stop-color="rgb(100%, 76.499939%, 19.198608%)" offset="0.9375"/><stop stop-opacity="1" stop-color="rgb(100%, 76.499939%, 19.198608%)" offset="1"/></linearGradient></defs><g clip-path="url(#e8f7e73fee)"><g clip-path="url(#7dd70b52a3)"><path fill="url(#f2d2940657)" d="M 0.015625 0.0078125 L 0.015625 22.988281 L 23.152344 22.988281 L 23.152344 0.0078125 Z M 0.015625 0.0078125 " fill-rule="nonzero"/></g></g><g clip-path="url(#d92aa9f4e8)"><g clip-path="url(#c3cab559f4)"><path fill="url(#5e7a39782b)" d="M 7.253906 7.417969 L 7.253906 30.398438 L 30.390625 30.398438 L 30.390625 7.417969 Z M 7.253906 7.417969 " fill-rule="nonzero"/></g></g></svg>