<svg xmlns="http://www.w3.org/2000/svg" xmlns:xlink="http://www.w3.org/1999/xlink" width="41" zoomAndPan="magnify" viewBox="0 0 30.75 30.750001" height="41" preserveAspectRatio="xMidYMid meet" version="1.0"><path fill="#61dafb" d="M 27.898438 15.191406 C 27.898438 13.527344 25.816406 11.949219 22.621094 10.96875 C 23.355469 7.710938 23.03125 5.117188 21.585938 4.289062 C 21.253906 4.09375 20.863281 4 20.4375 4 L 20.4375 5.144531 C 20.675781 5.144531 20.863281 5.191406 21.023438 5.277344 C 21.71875 5.675781 22.019531 7.199219 21.785156 9.15625 C 21.730469 9.636719 21.636719 10.144531 21.523438 10.664062 C 20.519531 10.417969 19.425781 10.226562 18.273438 10.105469 C 17.582031 9.15625 16.863281 8.296875 16.144531 7.542969 C 17.8125 5.988281 19.378906 5.140625 20.445312 5.140625 L 20.445312 3.996094 C 19.035156 3.996094 17.191406 5 15.328125 6.742188 C 13.464844 5.011719 11.621094 4.015625 10.214844 4.015625 L 10.214844 5.160156 C 11.273438 5.160156 12.847656 6.003906 14.515625 7.546875 C 13.796875 8.300781 13.082031 9.15625 12.398438 10.105469 C 11.242188 10.226562 10.148438 10.417969 9.144531 10.667969 C 9.027344 10.15625 8.9375 9.660156 8.878906 9.183594 C 8.636719 7.226562 8.933594 5.703125 9.625 5.296875 C 9.777344 5.207031 9.980469 5.164062 10.214844 5.164062 L 10.214844 4.023438 C 9.785156 4.023438 9.394531 4.113281 9.058594 4.308594 C 7.617188 5.140625 7.296875 7.726562 8.039062 10.976562 C 4.855469 11.960938 2.78125 13.53125 2.78125 15.191406 C 2.78125 16.859375 4.863281 18.4375 8.058594 19.414062 C 7.320312 22.671875 7.648438 25.265625 9.09375 26.097656 C 9.425781 26.289062 9.816406 26.382812 10.246094 26.382812 C 11.652344 26.382812 13.496094 25.378906 15.359375 23.636719 C 17.222656 25.367188 19.066406 26.363281 20.472656 26.363281 C 20.90625 26.363281 21.292969 26.269531 21.632812 26.074219 C 23.070312 25.246094 23.394531 22.65625 22.652344 19.410156 C 25.824219 18.429688 27.898438 16.851562 27.898438 15.191406 Z M 21.230469 11.773438 C 21.042969 12.4375 20.808594 13.117188 20.542969 13.796875 C 20.332031 13.390625 20.109375 12.980469 19.871094 12.570312 C 19.636719 12.160156 19.382812 11.757812 19.132812 11.371094 C 19.859375 11.476562 20.5625 11.609375 21.230469 11.773438 Z M 18.886719 17.230469 C 18.488281 17.921875 18.078125 18.578125 17.652344 19.1875 C 16.890625 19.253906 16.117188 19.292969 15.339844 19.292969 C 14.566406 19.292969 13.792969 19.253906 13.035156 19.195312 C 12.609375 18.585938 12.195312 17.933594 11.796875 17.246094 C 11.40625 16.574219 11.054688 15.894531 10.730469 15.207031 C 11.046875 14.519531 11.40625 13.835938 11.792969 13.164062 C 12.191406 12.472656 12.601562 11.816406 13.023438 11.207031 C 13.789062 11.140625 14.5625 11.101562 15.339844 11.101562 C 16.113281 11.101562 16.886719 11.140625 17.644531 11.199219 C 18.066406 11.8125 18.484375 12.460938 18.882812 13.148438 C 19.269531 13.820312 19.625 14.5 19.945312 15.1875 C 19.625 15.875 19.269531 16.558594 18.886719 17.230469 Z M 20.542969 16.566406 C 20.816406 17.253906 21.054688 17.9375 21.246094 18.605469 C 20.578125 18.769531 19.871094 18.90625 19.136719 19.015625 C 19.390625 18.621094 19.640625 18.214844 19.875 17.800781 C 20.109375 17.390625 20.332031 16.976562 20.542969 16.566406 Z M 15.347656 22.03125 C 14.875 21.539062 14.398438 20.992188 13.925781 20.394531 C 14.386719 20.414062 14.859375 20.429688 15.335938 20.429688 C 15.816406 20.429688 16.292969 20.417969 16.757812 20.394531 C 16.296875 20.992188 15.820312 21.539062 15.347656 22.03125 Z M 11.539062 19.015625 C 10.8125 18.90625 10.113281 18.773438 9.441406 18.609375 C 9.628906 17.949219 9.867188 17.265625 10.132812 16.585938 C 10.34375 16.996094 10.5625 17.40625 10.804688 17.816406 C 11.042969 18.226562 11.289062 18.625 11.539062 19.015625 Z M 15.324219 8.351562 C 15.800781 8.84375 16.277344 9.390625 16.746094 9.992188 C 16.285156 9.972656 15.816406 9.957031 15.339844 9.957031 C 14.859375 9.957031 14.382812 9.964844 13.914062 9.992188 C 14.375 9.390625 14.851562 8.84375 15.324219 8.351562 Z M 11.535156 11.371094 C 11.285156 11.765625 11.035156 12.167969 10.796875 12.585938 C 10.5625 12.996094 10.34375 13.402344 10.132812 13.8125 C 9.855469 13.128906 9.621094 12.441406 9.425781 11.773438 C 10.097656 11.617188 10.804688 11.476562 11.535156 11.371094 Z M 6.902344 17.785156 C 5.089844 17.011719 3.917969 15.996094 3.917969 15.191406 C 3.917969 14.386719 5.089844 13.367188 6.902344 12.601562 C 7.34375 12.410156 7.824219 12.242188 8.320312 12.082031 C 8.613281 13.085938 8.996094 14.132812 9.472656 15.203125 C 9 16.269531 8.621094 17.308594 8.335938 18.308594 C 7.828125 18.148438 7.347656 17.972656 6.902344 17.785156 Z M 9.65625 25.105469 C 8.960938 24.707031 8.65625 23.183594 8.894531 21.226562 C 8.949219 20.746094 9.042969 20.238281 9.152344 19.722656 C 10.15625 19.96875 11.253906 20.15625 12.40625 20.28125 C 13.097656 21.226562 13.8125 22.089844 14.535156 22.84375 C 12.867188 24.394531 11.300781 25.246094 10.234375 25.246094 C 10.003906 25.238281 9.808594 25.195312 9.65625 25.105469 Z M 21.800781 21.203125 C 22.042969 23.160156 21.746094 24.679688 21.054688 25.085938 C 20.898438 25.179688 20.699219 25.21875 20.464844 25.21875 C 19.40625 25.21875 17.832031 24.375 16.164062 22.832031 C 16.878906 22.078125 17.597656 21.222656 18.277344 20.273438 C 19.433594 20.152344 20.53125 19.960938 21.535156 19.710938 C 21.652344 20.230469 21.746094 20.726562 21.800781 21.203125 Z M 23.773438 17.785156 C 23.332031 17.972656 22.851562 18.144531 22.355469 18.300781 C 22.0625 17.296875 21.675781 16.253906 21.203125 15.183594 C 21.671875 14.117188 22.050781 13.078125 22.339844 12.078125 C 22.84375 12.234375 23.328125 12.410156 23.777344 12.601562 C 25.589844 13.375 26.761719 14.386719 26.761719 15.191406 C 26.757812 15.996094 25.585938 17.015625 23.773438 17.785156 Z M 23.773438 17.785156 " fill-opacity="1" fill-rule="nonzero"/><path fill="#61dafb" d="M 15.335938 17.535156 C 16.625 17.535156 17.675781 16.484375 17.675781 15.191406 C 17.675781 13.898438 16.625 12.851562 15.335938 12.851562 C 14.042969 12.851562 12.996094 13.898438 12.996094 15.191406 C 12.996094 16.484375 14.042969 17.535156 15.335938 17.535156 Z M 15.335938 17.535156 " fill-opacity="1" fill-rule="nonzero"/></svg>