<svg xmlns="http://www.w3.org/2000/svg" xmlns:xlink="http://www.w3.org/1999/xlink" width="41" zoomAndPan="magnify" viewBox="0 0 30.75 30.750001" height="41" preserveAspectRatio="xMidYMid meet" version="1.0"><defs><clipPath id="537f434001"><path d="M 0 6 L 30.503906 6 L 30.503906 25 L 0 25 Z M 0 6 " clip-rule="nonzero"/></clipPath></defs><g clip-path="url(#537f434001)"><path fill="#44a8b3" d="M 8.125 12.304688 C 9.117188 8.28125 11.589844 6.269531 15.546875 6.269531 C 21.480469 6.269531 22.222656 10.796875 25.191406 11.550781 C 27.171875 12.054688 28.902344 11.300781 30.386719 9.289062 C 29.394531 13.3125 26.921875 15.324219 22.964844 15.324219 C 17.03125 15.324219 16.289062 10.796875 13.320312 10.042969 C 11.34375 9.539062 9.609375 10.292969 8.125 12.304688 Z M 0.707031 21.359375 C 1.695312 17.335938 4.167969 15.324219 8.125 15.324219 C 14.0625 15.324219 14.804688 19.851562 17.773438 20.605469 C 19.75 21.109375 21.480469 20.351562 22.964844 18.339844 C 21.976562 22.367188 19.503906 24.378906 15.546875 24.378906 C 9.609375 24.378906 8.867188 19.851562 5.902344 19.097656 C 3.921875 18.59375 2.191406 19.347656 0.707031 21.359375 Z M 0.707031 21.359375 " fill-opacity="1" fill-rule="nonzero"/></g></svg>