<svg xmlns="http://www.w3.org/2000/svg" xmlns:xlink="http://www.w3.org/1999/xlink" width="40" zoomAndPan="magnify" viewBox="0 0 30 30.000001" height="40" preserveAspectRatio="xMidYMid meet" version="1.0"><defs><clipPath id="6b1aec965a"><path d="M 19 6 L 29.515625 6 L 29.515625 23 L 19 23 Z M 19 6 " clip-rule="nonzero"/></clipPath><clipPath id="35d83bd180"><path d="M 0.484375 6 L 11 6 L 11 23 L 0.484375 23 Z M 0.484375 6 " clip-rule="nonzero"/></clipPath></defs><g clip-path="url(#6b1aec965a)"><path fill="#5653ff" d="M 29.335938 14.082031 L 21.925781 6.671875 C 21.695312 6.441406 21.289062 6.441406 21.058594 6.671875 L 19.453125 8.277344 C 19.210938 8.515625 19.210938 8.90625 19.453125 9.144531 L 24.820312 14.515625 L 19.453125 19.882812 C 19.210938 20.125 19.210938 20.511719 19.453125 20.753906 L 21.058594 22.359375 C 21.171875 22.472656 21.328125 22.539062 21.492188 22.539062 C 21.65625 22.539062 21.8125 22.472656 21.925781 22.359375 L 29.335938 14.949219 C 29.574219 14.710938 29.574219 14.320312 29.335938 14.082031 Z M 29.335938 14.082031 " fill-opacity="1" fill-rule="nonzero"/></g><g clip-path="url(#35d83bd180)"><path fill="#5653ff" d="M 10.546875 19.882812 L 5.179688 14.515625 L 10.546875 9.148438 C 10.664062 9.03125 10.726562 8.875 10.726562 8.710938 C 10.726562 8.550781 10.664062 8.394531 10.546875 8.277344 L 8.941406 6.671875 C 8.828125 6.554688 8.671875 6.492188 8.507812 6.492188 C 8.34375 6.492188 8.1875 6.554688 8.074219 6.671875 L 0.664062 14.082031 C 0.421875 14.320312 0.421875 14.710938 0.664062 14.949219 L 8.074219 22.359375 C 8.1875 22.472656 8.34375 22.539062 8.507812 22.539062 C 8.667969 22.539062 8.824219 22.472656 8.941406 22.359375 L 10.546875 20.753906 C 10.789062 20.511719 10.789062 20.125 10.546875 19.882812 Z M 10.546875 19.882812 " fill-opacity="1" fill-rule="nonzero"/></g><path fill="#5653ff" d="M 19.214844 4.179688 C 19.136719 4.035156 19.003906 3.929688 18.847656 3.882812 L 17.546875 3.5 C 17.21875 3.402344 16.878906 3.589844 16.78125 3.914062 L 10.738281 24.386719 C 10.691406 24.542969 10.707031 24.710938 10.785156 24.855469 C 10.863281 24.996094 10.996094 25.105469 11.152344 25.148438 L 12.453125 25.535156 C 12.511719 25.550781 12.570312 25.558594 12.628906 25.558594 C 12.894531 25.558594 13.136719 25.386719 13.21875 25.117188 L 19.261719 4.644531 C 19.308594 4.488281 19.289062 4.320312 19.214844 4.179688 Z M 19.214844 4.179688 " fill-opacity="1" fill-rule="nonzero"/></svg>