<svg xmlns="http://www.w3.org/2000/svg" xmlns:xlink="http://www.w3.org/1999/xlink" width="81" zoomAndPan="magnify" viewBox="0 0 60.75 54.75" height="73" preserveAspectRatio="xMidYMid meet" version="1.0"><defs><clipPath id="d05fdf7152"><path d="M 0.0117188 0 L 60.488281 0 L 60.488281 54.5 L 0.0117188 54.5 Z M 0.0117188 0 " clip-rule="nonzero"/></clipPath><clipPath id="0c27e78add"><path d="M 34 20 L 44.042969 20 L 44.042969 35 L 34 35 Z M 34 20 " clip-rule="nonzero"/></clipPath><clipPath id="2d6234f9b3"><path d="M 17.203125 20 L 27 20 L 27 35 L 17.203125 35 Z M 17.203125 20 " clip-rule="nonzero"/></clipPath></defs><g clip-path="url(#d05fdf7152)"><path fill="#5653ff" d="M 41.464844 0 L 19.035156 0 C 16.265625 0 13.707031 1.488281 12.316406 3.882812 L 1.101562 23.320312 C -0.289062 25.730469 -0.289062 28.691406 1.101562 31.097656 L 12.316406 50.535156 C 13.707031 52.945312 16.265625 54.417969 19.035156 54.417969 L 41.464844 54.417969 C 44.234375 54.417969 46.792969 52.933594 48.183594 50.535156 L 59.398438 31.097656 C 60.789062 28.691406 60.789062 25.730469 59.398438 23.320312 L 48.195312 3.882812 C 46.792969 1.476562 44.234375 0 41.464844 0 Z M 41.464844 0 " fill-opacity="1" fill-rule="nonzero"/></g><g clip-path="url(#0c27e78add)"><path fill="#ffffff" d="M 43.875 27.179688 L 37.027344 20.332031 C 36.8125 20.117188 36.4375 20.117188 36.222656 20.332031 L 34.738281 21.816406 C 34.515625 22.039062 34.515625 22.398438 34.738281 22.617188 L 39.703125 27.582031 L 34.738281 32.542969 C 34.515625 32.765625 34.515625 33.125 34.738281 33.347656 L 36.222656 34.832031 C 36.328125 34.9375 36.472656 35 36.625 35 C 36.773438 35 36.921875 34.9375 37.027344 34.832031 L 43.875 27.984375 C 44.097656 27.761719 44.097656 27.402344 43.875 27.179688 Z M 43.875 27.179688 " fill-opacity="1" fill-rule="nonzero"/></g><g clip-path="url(#2d6234f9b3)"><path fill="#ffffff" d="M 26.507812 32.542969 L 21.542969 27.582031 L 26.507812 22.621094 C 26.613281 22.511719 26.675781 22.367188 26.675781 22.21875 C 26.675781 22.066406 26.613281 21.921875 26.507812 21.816406 L 25.023438 20.332031 C 24.917969 20.226562 24.773438 20.164062 24.621094 20.164062 C 24.472656 20.164062 24.328125 20.226562 24.21875 20.332031 L 17.371094 27.179688 C 17.148438 27.402344 17.148438 27.761719 17.371094 27.984375 L 24.21875 34.832031 C 24.324219 34.9375 24.46875 35 24.621094 35 C 24.773438 35 24.917969 34.9375 25.023438 34.832031 L 26.507812 33.347656 C 26.730469 33.125 26.730469 32.765625 26.507812 32.542969 Z M 26.507812 32.542969 " fill-opacity="1" fill-rule="nonzero"/></g><path fill="#ffffff" d="M 34.515625 18.027344 C 34.445312 17.894531 34.324219 17.796875 34.179688 17.753906 L 32.976562 17.398438 C 32.675781 17.308594 32.359375 17.480469 32.269531 17.78125 L 26.683594 36.707031 C 26.640625 36.851562 26.65625 37.007812 26.726562 37.140625 C 26.800781 37.273438 26.921875 37.371094 27.066406 37.414062 L 28.269531 37.769531 C 28.324219 37.785156 28.378906 37.792969 28.429688 37.792969 C 28.675781 37.792969 28.902344 37.632812 28.976562 37.382812 L 34.5625 18.457031 C 34.605469 18.3125 34.589844 18.160156 34.515625 18.027344 Z M 34.515625 18.027344 " fill-opacity="1" fill-rule="nonzero"/></svg>